<svg xmlns="http://www.w3.org/2000/svg" viewBox="0 0 512 512">
  <defs>
    <linearGradient id="bg" x1="0%" y1="0%" x2="100%" y2="100%">
      <stop offset="0%" style="stop-color:#6366f1"/>
      <stop offset="100%" style="stop-color:#a855f7"/>
    </linearGradient>
  </defs>
  <!-- Rounded square -->
  <rect width="512" height="512" rx="96" ry="96" fill="url(#bg)"/>
  <!-- Code brackets < /> in subtle white -->
  <g fill="none" stroke="rgba(255,255,255,0.35)" stroke-width="28" stroke-linecap="round" stroke-linejoin="round">
    <!-- Left < bracket -->
    <polyline points="148,168 68,256 148,344"/>
    <!-- Right /> bracket -->
    <polyline points="364,168 444,256 364,344"/>
    <!-- Slash / -->
    <line x1="330" y1="148" x2="182" y2="364"/>
  </g>
  <!-- B letter -->
  <g fill="#ffffff">
    <path d="M178,200 h40 q30,0 30,28 q0,18 -16,24 q20,6 20,28 q0,32 -34,32 h-40 z M204,244 h14 q10,0 10,-12 q0,-12 -10,-12 h-14 z M204,292 h16 q12,0 12,-14 q0,-14 -12,-14 h-16 z"/>
    <!-- T letter -->
    <path d="M272,200 h68 v22 h-22 v90 h-24 v-90 h-22 z"/>
  </g>
</svg>
